PathFileType	4	(X/Y/Z)	C:/Users/opensim2020/Desktop/walking_exp_matlab/subject02_walking06_straight_04.trc	
DataRate	CameraRate	NumFrames	NumMarkers	Units	OrigDataRate	OrigDataStartFrame	OrigNumFrames	
100.00	100.00	9	41	mm	100.00	2709	216	
Frame#	Time	LFHD			RFHD			LBHD			RBHD			C7			T10			CLAV			STRN			RBAK			LSHO			LUPA			LELB			LFRM			LWRA			LWRB			LFIN			RSHO			RUPA			RELB			RFRM			RWRA			RWRB			RFIN			LASI			RASI			LPSI			RPSI			LTHI			LKNE			LTIB			LANK			LHEE			LTOE			RTHI			RKNE			RTIB			RANK			RHEE			RTOE			*39			*40			
		X1	Y1	Z1	X2	Y2	Z2	X3	Y3	Z3	X4	Y4	Z4	X5	Y5	Z5	X6	Y6	Z6	X7	Y7	Z7	X8	Y8	Z8	X9	Y9	Z9	X10	Y10	Z10	X11	Y11	Z11	X12	Y12	Z12	X13	Y13	Z13	X14	Y14	Z14	X15	Y15	Z15	X16	Y16	Z16	X17	Y17	Z17	X18	Y18	Z18	X19	Y19	Z19	X20	Y20	Z20	X21	Y21	Z21	X22	Y22	Z22	X23	Y23	Z23	X24	Y24	Z24	X25	Y25	Z25	X26	Y26	Z26	X27	Y27	Z27	X28	Y28	Z28	X29	Y29	Z29	X30	Y30	Z30	X31	Y31	Z31	X32	Y32	Z32	X33	Y33	Z33	X34	Y34	Z34	X35	Y35	Z35	X36	Y36	Z36	X37	Y37	Z37	X38	Y38	Z38	X39	Y39	Z39	X40	Y40	Z40	X41	Y41	Z41	

55	0.540	-969.71332	217.02626	1721.13220	-1113.72632	217.55748	1709.48474	-964.02789	347.53644	1646.39221	-1107.93689	360.88116	1633.18298	-1044.09265	402.31342	1508.81958	-1058.19153	454.57434	1233.05115	-1031.74988	261.88052	1439.40845	-1056.38525	209.31302	1269.69031	-1117.87756	460.05688	1339.21875	-865.23358	341.08200	1472.94861	-790.91943	412.88580	1288.36865	-780.72296	462.95151	1161.06470	-754.75244	512.92737	1043.55835	-751.67535	512.72754	902.39038	-738.92871	559.67108	930.88470	-723.43958	575.99139	868.04083	-1227.45471	321.79001	1488.12524	-1324.44287	304.80588	1302.70776	-1351.43298	239.56145	1169.16125	-1360.26074	155.13905	1080.88660	-1329.40686	53.16524	998.37500	-1364.87378	87.11234	969.88342	-1364.06067	21.84788	940.80658	-943.14209	202.96214	978.93713	-1200.36731	233.80116	956.44983	-1000.94067	422.40463	1014.75226	-1113.31384	438.70987	1015.69513	-867.36792	187.56247	679.11188	-900.65210	151.52734	481.85379	-894.90674	146.99989	287.22910	-920.70319	71.93385	74.48802	-972.62018	96.55251	36.08996	-916.15674	-83.36449	82.41859	-1251.97803	385.50922	666.47949	-1215.65198	446.18503	464.28119	-1219.74304	557.38196	310.57770	-1185.87207	648.42212	138.25833	-1129.72815	698.68231	99.04947	-1199.47375	521.56989	39.17133	-1056.21887	318.84814	1790.86768	-3360.18066	2845.03198	1033.94348 
56	0.550	-968.18579	206.87608	1720.43457	-1111.86340	207.66170	1708.86560	-962.18921	337.24231	1645.42773	-1106.09680	350.87592	1632.28394	-1042.22046	391.81250	1507.69775	-1056.22937	442.83463	1231.57056	-1029.90601	251.03404	1438.96594	-1054.36584	197.68388	1269.48169	-1116.09814	448.82239	1337.75623	-863.42139	330.68457	1472.21301	-789.37994	402.05423	1287.20667	-779.64703	451.74323	1159.79395	-753.99829	501.73535	1042.56543	-751.45776	501.08612	900.88086	-738.66656	548.07819	929.32379	-723.31989	564.47418	866.35614	-1225.43848	311.44528	1487.69580	-1322.47498	294.59061	1302.27197	-1349.73792	230.11281	1168.56030	-1357.93286	145.29500	1080.23743	-1327.43042	42.81137	998.40277	-1362.43433	76.94012	969.47491	-1361.37964	11.57132	940.56927	-940.35907	189.76427	979.52551	-1197.72180	220.60854	955.97412	-998.27411	409.19131	1013.68091	-1110.63123	425.65518	1014.54535	-865.16718	176.26347	677.80579	-898.63098	142.92668	479.75421	-893.59332	141.41263	284.72354	-920.07214	69.37846	70.68839	-971.60272	95.13584	33.96978	-915.76868	-85.88596	76.95914	-1251.13501	374.59439	666.82050	-1216.10254	436.66275	465.11737	-1220.08752	550.91364	313.62241	-1187.02490	645.18640	142.87204	-1130.96558	695.63190	105.04848	-1199.78113	521.09283	39.17596	-1054.60962	308.90695	1790.17053	-3360.25122	2845.12842	1033.86938 
57	0.560	-965.97864	197.25037	1719.98022	-1109.92871	197.76051	1708.20264	-960.19604	327.33588	1644.74902	-1104.04004	340.73297	1631.18176	-1040.35034	381.34152	1506.46021	-1054.09644	431.06589	1229.91626	-1027.91492	240.14284	1438.43542	-1052.24402	185.93147	1269.22009	-1114.49963	437.55078	1336.14819	-861.54340	320.17056	1471.39624	-787.79871	391.16220	1286.06470	-778.51270	440.19113	1158.28345	-753.20166	489.90521	1040.75745	-751.11432	488.72546	899.26068	-738.16534	535.81854	927.38715	-723.23773	552.18665	864.34644	-1223.24756	301.03604	1486.97876	-1320.82300	284.50690	1301.93835	-1347.57202	220.84335	1167.52930	-1355.92676	135.84102	1079.45520	-1325.06555	32.98356	997.86517	-1359.92834	67.09175	968.82288	-1358.77563	1.73876	940.11963	-937.51501	176.46300	979.98553	-1195.05493	207.21190	955.84839	-995.44849	396.07599	1012.64532	-1107.72754	412.34100	1013.24725	-863.00140	165.97229	675.87836	-896.19147	135.01982	477.20807	-892.73657	135.87724	282.02859	-920.62506	65.95646	68.66235	-973.26373	91.98497	35.50571	-913.27014	-90.64372	67.76907	-1250.22278	363.37289	667.14679	-1216.66748	426.45724	466.00488	-1220.39294	543.92297	316.79593	-1188.10278	641.47742	147.76993	-1131.60022	692.01117	111.51417	-1200.45898	520.67883	39.29007	-1052.64856	299.34976	1789.34058	-3357.42017	2845.76709	1034.12756 
58	0.570	-963.99133	187.26814	1719.75549	-1107.99121	187.75993	1707.92920	-958.20129	316.96423	1643.86853	-1102.15076	330.57785	1630.57727	-1038.35767	371.05920	1505.26709	-1051.46753	419.45596	1228.88770	-1025.73596	229.16780	1437.95447	-1050.06165	174.21381	1269.20459	-1111.94580	426.17984	1334.76050	-859.54309	309.52322	1470.55212	-786.07300	380.00327	1284.67273	-777.16797	428.56033	1156.61243	-752.58307	477.80981	1038.85327	-750.77350	475.75220	897.16541	-737.68457	522.99652	925.29736	-723.17731	539.08734	861.88013	-1221.20386	290.55148	1486.21045	-1318.81531	274.49066	1301.32275	-1345.71301	211.77510	1166.48242	-1353.87476	126.50298	1078.45752	-1322.70520	23.51702	997.12781	-1357.45996	57.54010	967.90302	-1356.08545	-7.84157	939.17230	-934.79883	163.19548	980.52234	-1192.32312	193.49202	955.48474	-992.36273	382.80548	1011.55096	-1104.58337	398.97482	1011.90247	-861.00476	155.85149	674.35474	-893.27301	128.21219	475.12741	-893.13220	129.27385	279.69864	-918.89325	61.16451	68.89365	-972.40723	88.46578	37.44494	-911.10687	-96.20638	59.21619	-1249.27856	351.79340	667.49780	-1217.16919	415.64740	466.75931	-1220.68066	536.36566	320.13397	-1189.31763	637.32281	153.26834	-1132.14246	687.60754	118.53673	-1201.12561	520.15472	39.38241	-1050.62500	289.73117	1788.51514	-3357.35693	2845.83301	1033.92786 
59	0.580	-962.00244	177.20793	1720.11841	-1105.92029	177.76631	1708.18408	-956.17090	306.82922	1643.70313	-1099.93042	320.14664	1630.03162	-1036.18542	360.91367	1504.44177	-1048.58423	407.72583	1228.20056	-1023.57642	218.31210	1437.91394	-1047.82532	162.72772	1269.50635	-1109.57629	414.90924	1333.80505	-857.32568	298.95782	1469.78882	-784.30322	368.32425	1283.00330	-775.83215	416.40390	1154.79956	-751.38965	464.60159	1036.63623	-750.63367	462.19788	895.04022	-737.38422	509.43536	922.62799	-723.15369	525.00671	859.14838	-1219.17029	280.31503	1485.69128	-1317.18298	264.59702	1300.72449	-1343.88794	202.86798	1165.28809	-1351.86853	117.44701	1077.23914	-1320.12048	14.55106	996.13202	-1355.09485	48.32667	966.77917	-1353.29089	-17.06461	937.91748	-932.06079	150.03358	980.87213	-1189.51184	179.73090	955.02454	-989.01233	369.63705	1010.80927	-1101.24524	385.82434	1010.48602	-858.70184	147.17377	674.86365	-889.86694	120.38231	474.94547	-893.29620	120.85007	279.84644	-915.95740	56.19555	67.60549	-969.85223	85.71667	39.22239	-910.30798	-101.01919	53.02154	-1248.18555	339.67709	667.81494	-1217.80518	403.87488	467.57724	-1220.92456	527.92664	323.74902	-1190.26819	631.88538	158.93428	-1132.62817	682.16589	126.11777	-1201.59143	519.73468	39.24017	-1048.63269	280.02939	1788.37964	-3360.21240	2845.13696	1033.92065 
60	0.590	-960.00842	167.27205	1720.64771	-1103.95337	167.83073	1708.70496	-954.07275	296.47314	1643.60181	-1097.77649	309.87469	1630.16492	-1033.94470	350.51669	1504.11865	-1046.20789	395.91870	1227.59741	-1021.34271	207.67818	1438.12292	-1045.52698	151.30981	1270.07202	-1107.02551	403.68695	1332.82910	-854.91504	288.40405	1469.19727	-782.20972	356.70651	1281.68115	-774.34772	403.86423	1152.84595	-750.74445	451.15225	1033.89343	-750.66608	447.55350	892.68524	-737.10681	494.83600	919.74359	-723.19800	510.16919	856.23602	-1217.40356	270.11090	1485.25220	-1314.67932	254.77988	1299.62268	-1342.06177	194.09773	1164.03040	-1349.84070	108.69336	1075.92273	-1317.74194	5.81051	994.88470	-1352.66089	39.52867	965.44336	-1350.44812	-25.82519	936.37927	-929.27844	137.09804	981.10016	-1186.68726	166.41176	954.28638	-985.86737	356.80835	1010.83008	-1097.99194	372.98483	1009.27936	-855.86627	138.33130	675.83075	-886.33197	110.82121	476.34644	-888.77502	112.98386	281.11588	-914.04376	53.27783	66.70570	-967.73541	84.07309	40.21101	-910.29944	-103.77029	46.89713	-1246.71985	327.08926	668.36530	-1218.69214	390.95660	468.44458	-1221.21411	518.33734	327.55695	-1191.07861	625.53461	165.03288	-1132.73596	675.38336	134.02390	-1202.05493	518.91571	39.28130	-1046.52173	270.32648	1788.61548	-3360.16113	2845.06494	1033.90466 
61	0.600	-957.94702	157.28734	1721.28259	-1101.86987	157.84741	1709.27686	-951.92957	286.30850	1644.25146	-1095.72729	299.79254	1630.46069	-1031.67712	339.84308	1504.19226	-1044.06970	384.06018	1227.20593	-1019.20532	197.20087	1438.58752	-1043.00342	139.92239	1270.87671	-1104.48816	392.64642	1332.13208	-852.43018	277.82318	1468.84656	-780.13428	344.72824	1280.30786	-772.86438	390.85471	1150.98315	-749.61096	437.14771	1031.66248	-750.69135	431.84073	890.36438	-736.83411	479.73926	916.86572	-723.28265	494.21371	853.17072	-1215.84167	259.74249	1484.96570	-1312.64001	245.25876	1298.70911	-1340.21545	185.44896	1162.84363	-1347.73279	100.19819	1074.51465	-1315.49756	-2.57656	993.38666	-1350.29932	31.22933	963.96045	-1347.63806	-34.13134	934.50757	-926.50372	124.23941	981.41870	-1183.34253	152.26117	954.38318	-982.77777	343.82629	1011.76978	-1095.10193	360.18805	1008.66620	-852.90619	129.19449	676.73926	-883.70959	99.89241	478.05884	-882.29327	104.52276	282.87973	-913.86395	51.62573	67.24558	-967.48724	83.06788	40.64363	-909.95599	-105.49062	44.31944	-1244.99316	314.07040	668.94592	-1219.85291	376.59625	469.06885	-1221.62122	507.40103	331.44562	-1191.65356	618.00421	171.44374	-1132.17053	667.49146	142.37163	-1202.19421	518.02423	39.23170	-1044.43982	260.52667	1788.95117	-3357.30762	2845.74707	1034.05017 
62	0.610	-956.16766	146.97784	1721.81396	-1099.80273	147.74071	1709.95129	-949.77203	276.16327	1644.57813	-1093.62476	289.54407	1630.85718	-1029.63025	329.18170	1504.73987	-1042.04993	372.44928	1227.24878	-1016.94000	186.71333	1439.23157	-1040.53796	128.67815	1271.87573	-1102.15344	381.61050	1331.78210	-849.96954	267.22794	1468.78809	-778.02118	332.19061	1279.05273	-771.51868	377.12985	1148.99451	-748.76440	422.40384	1029.31665	-750.74078	415.78207	888.06549	-736.48676	463.57150	914.06958	-723.23370	477.65228	850.15594	-1214.41199	248.96954	1484.82483	-1310.47803	236.06851	1297.94946	-1338.21362	176.84598	1161.84387	-1345.55457	92.04175	1073.13123	-1312.80554	-10.25630	991.47345	-1347.83496	23.51085	962.36084	-1344.83374	-41.74930	932.58887	-923.60236	111.66804	982.07684	-1179.96375	139.01228	954.20734	-980.14154	331.28021	1013.56110	-1092.87305	347.38385	1008.84991	-850.43213	119.49076	678.33820	-882.11871	89.19255	479.29074	-878.02081	96.74188	284.51685	-914.24933	50.51583	68.21306	-967.38818	82.51839	41.12175	-909.88696	-106.84853	42.04022	-1243.06226	300.56393	669.25122	-1221.11279	360.79651	469.31693	-1222.10059	494.96594	335.13416	-1191.50745	609.05359	177.90663	-1131.35571	658.00970	151.07556	-1202.04895	516.88770	39.26706	-1042.33423	250.57062	1789.47253	-3360.21558	2845.25342	1033.81860 
63	0.620	-954.28375	136.73982	1722.77026	-1097.76062	137.74298	1710.82422	-947.75848	265.79056	1645.07727	-1091.59375	279.45782	1631.69885	-1027.73413	318.67374	1505.42322	-1040.31543	360.97464	1227.51147	-1014.93707	176.35626	1440.08557	-1038.09265	117.62101	1273.00330	-1099.77283	370.57690	1331.66833	-847.66290	256.44141	1468.94739	-776.03680	319.28726	1277.89917	-769.93695	363.21350	1147.53979	-747.81476	406.78406	1027.01343	-751.01178	398.88034	886.00818	-736.03894	446.78543	911.26453	-723.42670	459.40860	846.96283	-1212.87390	238.21765	1485.18384	-1308.22119	227.05098	1297.50989	-1336.41760	168.41420	1161.33423	-1343.26123	84.18659	1071.89783	-1310.49084	-17.55964	989.74139	-1345.39551	16.37653	960.72260	-1342.15771	-48.66656	930.55328	-920.42676	99.75058	982.94995	-1176.31592	126.24392	954.21185	-977.81836	319.15533	1015.62866	-1091.33997	334.63431	1009.49670	-848.80536	108.38571	680.02094	-881.17914	79.14075	480.14703	-875.88745	90.19167	285.30377	-914.88257	48.87487	68.60554	-967.04498	81.75205	41.29024	-911.64258	-108.12409	39.94013	-1240.98914	286.55692	669.20807	-1222.55627	343.60254	469.07880	-1222.83813	480.93710	338.40137	-1191.29236	598.30511	184.18663	-1130.20923	646.58136	159.93411	-1201.35889	515.75574	39.15814	-1040.29651	240.61263	1790.22632	-3360.31592	2845.25269	1033.98877 
